HIERARCHY
ROOT joint_Root
{
	OFFSET 0.0 0.0 0.0
	CHANNELS 6 Xposition Yposition Zposition Zrotation Xrotation Yrotation 
	JOINT Hips
	{
		OFFSET -0.726466 93.3139 -2.00062
		CHANNELS 6 Xposition Yposition Zposition Zrotation Xrotation Yrotation 
		JOINT Spine
		{
			OFFSET 15.7357 0.0 0.0
			CHANNELS 6 Xposition Yposition Zposition Zrotation Xrotation Yrotation 
			JOINT Chest
			{
				OFFSET 8.98455 -0.406207 0.0
				CHANNELS 6 Xposition Yposition Zposition Zrotation Xrotation Yrotation 
				JOINT Neck
				{
					OFFSET 16.3773 0.0 0.0
					CHANNELS 6 Xposition Yposition Zposition Zrotation Xrotation Yrotation 
					JOINT Head
					{
						OFFSET 6.45672 0.0 0.0
						CHANNELS 6 Xposition Yposition Zposition Zrotation Xrotation Yrotation 
						End Site
						{
							OFFSET 0.0 0.0 0.0
						}
					}
				}
				JOINT Shoulder_L
				{
					OFFSET 12.9942 -0.242716 4.98039
					CHANNELS 6 Xposition Yposition Zposition Zrotation Xrotation Yrotation 
					JOINT UpperArm_L
					{
						OFFSET 5.34809 0.0 0.0
						CHANNELS 6 Xposition Yposition Zposition Zrotation Xrotation Yrotation 
						JOINT LowerArm_L
						{
							OFFSET 24.3286 1.87007e-05 0.0
							CHANNELS 6 Xposition Yposition Zposition Zrotation Xrotation Yrotation 
							JOINT Hand_L
							{
								OFFSET 22.2916 0.0 0.0
								CHANNELS 6 Xposition Yposition Zposition Zrotation Xrotation Yrotation 
								End Site
								{
									OFFSET 0.0 0.0 0.0
								}
							}
						}
					}
				}
				JOINT Shoulder_R
				{
					OFFSET 12.9945 -0.242716 -4.98039
					CHANNELS 6 Xposition Yposition Zposition Zrotation Xrotation Yrotation 
					JOINT UpperArm_R
					{
						OFFSET -5.34813 0.0 0.0
						CHANNELS 6 Xposition Yposition Zposition Zrotation Xrotation Yrotation 
						JOINT LowerArm_R
						{
							OFFSET -24.3289 0.000322201 0.0
							CHANNELS 6 Xposition Yposition Zposition Zrotation Xrotation Yrotation 
							JOINT Hand_R
							{
								OFFSET -22.2915 -0.000108084 0.0
								CHANNELS 6 Xposition Yposition Zposition Zrotation Xrotation Yrotation 
								End Site
								{
									OFFSET 0.0 0.0 0.0
								}
							}
						}
					}
				}
			}
		}
		JOINT UpperLeg_L
		{
			OFFSET -2.19248 -6.46944 0.0
			CHANNELS 6 Xposition Yposition Zposition Zrotation Xrotation Yrotation 
			JOINT LowerLeg_L
			{
				OFFSET 39.0811 0.0 -1.23785e-05
				CHANNELS 6 Xposition Yposition Zposition Zrotation Xrotation Yrotation 
				JOINT Foot_L
				{
					OFFSET 40.9854 0.0 -1.26872e-05
					CHANNELS 6 Xposition Yposition Zposition Zrotation Xrotation Yrotation 
					JOINT Toes_L
					{
						OFFSET 11.7543 0.0 0.0
						CHANNELS 6 Xposition Yposition Zposition Zrotation Xrotation Yrotation 
						End Site
						{
							OFFSET 0.0 0.0 0.0
						}
					}
				}
			}
		}
		JOINT UpperLeg_R
		{
			OFFSET -2.19251 6.46944 0.0
			CHANNELS 6 Xposition Yposition Zposition Zrotation Xrotation Yrotation 
			JOINT LowerLeg_R
			{
				OFFSET -39.0811 -0.00228153 -0.0401928
				CHANNELS 6 Xposition Yposition Zposition Zrotation Xrotation Yrotation 
				JOINT Foot_R
				{
					OFFSET -40.9854 0.0 0.0
					CHANNELS 6 Xposition Yposition Zposition Zrotation Xrotation Yrotation 
					JOINT Toes_R
					{
						OFFSET -11.7543 0.0 0.0
						CHANNELS 6 Xposition Yposition Zposition Zrotation Xrotation Yrotation 
						End Site
						{
							OFFSET 0.0 0.0 0.0
						}
					}
				}
			}
		}
	}
}
MOTION
Frames:	8
Frame Time:	0.0333333
0.000000 0.000000 0.000000 0.000000 0.000000 -0.000000 -3.869870 82.470300 6.451670 -87.574700 7.784890 174.821000 15.735700 0.000005 -0.000001 99.256700 79.897000 -97.772900 8.984550 -0.406207 -0.000000 12.150100 3.277880 2.618470 16.377300 -0.000001 -0.000001 0.887455 -0.921806 0.275445 6.456720 -0.000001 -0.000000 -4.133990 -0.862306 -4.362930 12.994200 -0.242716 4.980390 -88.666100 -3.205350 -67.391300 5.348090 -0.000007 -0.000001 -67.873200 29.211600 9.003770 24.328600 0.000019 0.000005 2.846110 2.659010 -47.000600 22.291600 -0.000001 0.000005 -5.254240 5.625930 -13.037600 12.994500 -0.242716 -4.980390 89.024200 2.478350 -68.505400 -5.348130 -0.000001 -0.000004 -42.441300 12.916100 -35.494100 -24.328900 0.000322 -0.000009 0.133814 0.066582 -64.017900 -22.291500 -0.000108 -0.000004 1.238300 5.604980 -11.645800 -2.192480 -6.469440 -0.000000 179.917000 -10.259800 -39.528200 39.081100 -0.000007 -0.000012 -0.240532 -0.079531 108.299000 40.985400 -0.000006 -0.000013 9.641150 -6.890570 -49.496500 11.754300 -0.000000 0.000003 -0.006846 -0.078343 -19.766000 -2.192510 6.469440 -0.000001 -175.905000 10.263700 162.027000 -39.081100 -0.002282 -0.040193 0.175721 -0.114316 56.467800 -40.985400 0.000008 0.000006 8.930540 -4.146040 -88.094900 -11.754300 -0.000006 -0.000006 -0.583174 -0.709746 -22.430500
0.000000 0.000000 0.000000 0.000000 0.000000 -0.000000 -4.457930 85.416000 -2.865140 -89.769900 9.425860 173.304000 15.735700 0.000005 -0.000001 104.909000 80.495600 -104.678000 8.984550 -0.406207 -0.000000 10.621000 4.862000 0.008925 16.377300 -0.000001 -0.000001 1.417600 -1.042120 0.810090 6.456720 -0.000001 -0.000000 -3.669660 -2.588820 -3.419930 12.994200 -0.242716 4.980390 -88.260700 -3.979780 -66.370700 5.348090 -0.000007 -0.000001 -69.781600 28.235100 13.472300 24.328600 0.000019 0.000005 0.615505 0.537759 -48.856600 22.291600 -0.000001 0.000005 -5.713980 5.624100 -12.905900 12.994500 -0.242716 -4.980390 89.426200 1.486320 -68.891400 -5.348130 -0.000001 -0.000004 -42.921700 12.465300 -37.352300 -24.328900 0.000322 -0.000009 -0.433955 -0.178880 -67.534900 -22.291500 -0.000108 -0.000004 1.362150 5.601870 -11.453700 -2.192480 -6.469440 -0.000000 175.534000 -9.951070 -44.456800 39.081100 -0.000007 -0.000012 -0.154757 -0.018444 96.800200 40.985400 -0.000006 -0.000013 8.177770 -8.868170 -54.774900 11.754300 -0.000000 0.000003 -0.005801 -0.069024 -19.385800 -2.192510 6.469440 -0.000001 178.787000 9.728050 170.051000 -39.081100 -0.002282 -0.040193 0.064545 -0.056603 47.275900 -40.985400 0.000008 0.000006 8.031660 0.164135 -78.058600 -11.754300 -0.000006 -0.000006 -0.067440 -0.355229 -31.272100
0.000000 0.000000 0.000000 0.000000 0.000000 -0.000000 -4.849330 88.873800 -12.158100 -90.900200 10.242100 171.794000 15.735700 0.000005 -0.000001 109.009000 81.071900 -109.635000 8.984550 -0.406207 -0.000000 9.183180 5.776880 -1.716630 16.377300 -0.000001 -0.000001 1.933200 -0.985535 1.083050 6.456720 -0.000001 -0.000000 -3.404290 -3.735980 -2.692700 12.994200 -0.242716 4.980390 -87.805300 -4.849900 -65.616400 5.348090 -0.000007 -0.000001 -71.627600 26.052100 16.738300 24.328600 0.000019 0.000005 1.669140 1.375400 -50.516700 22.291600 -0.000001 0.000005 -6.073960 5.621360 -12.713000 12.994500 -0.242716 -4.980390 89.675700 0.845925 -69.025500 -5.348130 -0.000001 -0.000004 -44.065500 13.710000 -37.920400 -24.328900 0.000322 -0.000009 0.022478 0.008787 -69.772700 -22.291500 -0.000108 -0.000004 0.479860 5.598610 -11.259900 -2.192480 -6.469440 -0.000000 173.293000 -9.586500 -45.735700 39.081100 -0.000007 -0.000012 -0.055243 0.010458 79.287800 40.985400 -0.000006 -0.000013 6.941820 -10.531600 -58.735800 11.754300 -0.000000 0.000003 -0.006468 -0.075040 -19.631200 -2.192510 6.469440 -0.000001 174.834000 11.055800 176.354000 -39.081100 -0.002282 -0.040193 0.052508 -0.062150 38.381100 -40.985400 0.000008 0.000006 7.333760 5.445270 -61.121700 -11.754300 -0.000006 -0.000006 -0.212887 -0.666093 -45.220900
0.000000 0.000000 0.000000 0.000000 0.000000 -0.000000 -4.997460 91.892500 -21.306200 -90.310700 10.224000 171.013000 15.735700 0.000005 -0.000001 111.336000 81.342300 -112.109000 8.984550 -0.406207 -0.000000 8.443210 6.266040 -2.009020 16.377300 -0.000001 -0.000001 2.530650 -0.967686 1.258960 6.456720 -0.000001 -0.000000 -3.828470 -4.467580 -2.343520 12.994200 -0.242716 4.980390 -87.458900 -5.545850 -65.334200 5.348090 -0.000007 -0.000001 -73.061000 23.335800 18.776200 24.328600 0.000019 0.000005 1.872940 1.471690 -51.857000 22.291600 -0.000001 0.000005 -5.817750 5.619470 -12.581700 12.994500 -0.242716 -4.980390 89.899800 0.265556 -69.333900 -5.348130 -0.000001 -0.000004 -45.336200 15.860600 -37.567000 -24.328900 0.000322 -0.000009 0.076062 0.027081 -70.783400 -22.291500 -0.000108 -0.000004 -0.021328 5.594150 -10.997600 -2.192480 -6.469440 -0.000000 173.450000 -10.149800 -42.596500 39.081100 -0.000007 -0.000012 0.002491 -0.001624 56.832100 40.985400 -0.000006 -0.000013 6.596140 -8.980210 -61.698300 11.754300 -0.000000 0.000003 -0.005866 -0.069622 -19.410200 -2.192510 6.469440 -0.000001 172.407000 13.957300 -178.505000 -39.081100 -0.002282 -0.040193 0.084593 -0.134629 31.125100 -40.985400 0.000008 0.000006 4.016880 11.034600 -41.460900 -11.754300 -0.000006 -0.000006 -0.208069 -0.658341 -44.850800
0.000000 0.000000 0.000000 0.000000 0.000000 -0.000000 -4.691510 93.146700 -30.912700 -87.522900 9.708840 172.198000 15.735700 0.000005 -0.000001 113.206000 80.864600 -113.290000 8.984550 -0.406207 -0.000000 9.084290 7.160340 -0.736899 16.377300 -0.000001 -0.000001 2.862580 -1.218950 1.401660 6.456720 -0.000001 -0.000000 -4.306460 -5.261880 -2.108820 12.994200 -0.242716 4.980390 -87.239800 -6.052390 -65.427300 5.348090 -0.000007 -0.000001 -73.230500 21.642600 18.688700 24.328600 0.000019 0.000005 2.198150 1.661010 -52.938200 22.291600 -0.000001 0.000005 -5.165090 5.618340 -12.506700 12.994500 -0.242716 -4.980390 90.090800 -0.242692 -69.474300 -5.348130 -0.000001 -0.000004 -46.603900 18.241700 -35.995800 -24.328900 0.000322 -0.000009 0.231767 0.081015 -70.858900 -22.291500 -0.000108 -0.000004 0.180965 5.594320 -11.008000 -2.192480 -6.469440 -0.000000 176.440000 -12.022600 -35.189500 39.081100 -0.000007 -0.000012 0.011575 -0.017937 32.831600 40.985400 -0.000006 -0.000013 3.786480 -3.774680 -64.403400 11.754300 -0.000000 0.000003 -0.006002 -0.070864 -19.460900 -2.192510 6.469440 -0.000001 171.639000 14.894300 -172.722000 -39.081100 -0.002282 -0.040193 0.143674 -0.263205 28.071300 -40.985400 0.000008 0.000006 -4.423740 9.929530 -27.266300 -11.754300 -0.000006 -0.000006 -0.028303 -0.209580 -25.155100
0.000000 0.000000 0.000000 0.000000 0.000000 -0.000000 -4.135420 92.791900 -40.908700 -84.312200 10.250100 172.969000 15.735700 0.000005 -0.000001 117.222000 80.522700 -116.557000 8.984550 -0.406207 -0.000000 9.115800 8.631890 0.641378 16.377300 -0.000001 -0.000001 2.627130 -1.403570 1.444030 6.456720 -0.000001 -0.000000 -3.363830 -5.841460 -1.648310 12.994200 -0.242716 4.980390 -87.064100 -6.358990 -65.153800 5.348090 -0.000007 -0.000001 -72.028300 21.386000 16.539700 24.328600 0.000019 0.000005 3.465700 2.560230 -53.587200 22.291600 -0.000001 0.000005 -4.476780 5.620290 -12.638000 12.994500 -0.242716 -4.980390 90.313200 -0.853820 -69.854900 -5.348130 -0.000001 -0.000004 -48.883300 20.515200 -32.591700 -24.328900 0.000322 -0.000009 0.436779 0.161154 -69.819200 -22.291500 -0.000108 -0.000004 0.167119 5.595940 -11.103000 -2.192480 -6.469440 -0.000000 179.847000 -14.792800 -29.218100 39.081100 -0.000007 -0.000012 -0.003958 0.015993 13.897500 40.985400 -0.000006 -0.000013 -1.240940 -0.106989 -67.009800 11.754300 -0.000000 0.000003 -0.006678 -0.076880 -19.706300 -2.192510 6.469440 -0.000001 172.561000 12.781000 -169.185000 -39.081100 -0.002282 -0.040193 0.164456 -0.254720 32.321300 -40.985400 0.000008 0.000006 -4.200050 5.410230 -29.362800 -11.754300 -0.000006 -0.000006 -0.024241 -0.189739 -24.334100
0.000000 0.000000 0.000000 0.000000 0.000000 -0.000000 -4.003730 91.562400 -50.716800 -82.894400 10.822900 172.669000 15.735700 0.000005 -0.000001 118.539000 80.729000 -117.720000 8.984550 -0.406207 -0.000000 8.535620 8.821580 0.978488 16.377300 -0.000001 -0.000001 2.815580 -0.896442 1.577040 6.456720 -0.000001 -0.000000 -2.913550 -5.649050 -1.238630 12.994200 -0.242716 4.980390 -87.379000 -5.588740 -64.823900 5.348090 -0.000007 -0.000001 -69.550500 20.372100 13.174300 24.328600 0.000019 0.000005 3.174210 2.323310 -53.833700 22.291600 -0.000001 0.000005 -3.535800 5.621690 -12.734700 12.994500 -0.242716 -4.980390 90.165700 -0.470409 -70.604200 -5.348130 -0.000001 -0.000004 -50.429100 22.694600 -29.387000 -24.328900 0.000322 -0.000009 1.178540 0.515384 -66.438700 -22.291500 -0.000108 -0.000004 0.082316 5.597360 -11.186100 -2.192480 -6.469440 -0.000000 -179.503000 -16.952800 -28.916900 39.081100 -0.000007 -0.000012 -0.002250 0.014723 8.685350 40.985400 -0.000006 -0.000013 -2.426400 -3.954170 -69.037600 11.754300 -0.000000 0.000003 -0.006383 -0.074280 -19.600200 -2.192510 6.469440 -0.000001 174.241000 7.404660 -169.254000 -39.081100 -0.002282 -0.040193 0.194510 -0.222106 40.728700 -40.985400 0.000008 0.000006 -1.900400 0.092238 -33.487600 -11.754300 -0.000006 -0.000006 -0.023968 -0.188352 -24.276800
0.000000 0.000000 0.000000 0.000000 0.000000 -0.000000 -4.267210 89.725600 -60.032000 -84.990400 9.405110 172.267000 15.735700 0.000005 -0.000001 112.664000 81.290000 -112.643000 8.984550 -0.406207 -0.000000 8.350000 6.681810 -0.445297 16.377300 -0.000001 -0.000001 3.103470 -0.698085 1.843320 6.456720 -0.000001 -0.000000 -4.070020 -4.823850 -1.098270 12.994200 -0.242716 4.980390 -88.119400 -4.094270 -65.304900 5.348090 -0.000007 -0.000001 -65.983000 18.172300 8.251920 24.328600 0.000019 0.000005 1.324640 0.956394 -54.184700 22.291600 -0.000001 0.000005 -3.535600 5.617290 -12.435000 12.994500 -0.242716 -4.980390 89.833700 0.483116 -71.004100 -5.348130 -0.000001 -0.000004 -51.458700 24.672100 -26.352000 -24.328900 0.000322 -0.000009 2.188130 1.169840 -61.912600 -22.291500 -0.000108 -0.000004 -0.359212 5.599560 -11.318800 -2.192480 -6.469440 -0.000000 176.204000 -16.242900 -37.731000 39.081100 -0.000007 -0.000012 0.245129 -0.534504 24.637100 40.985400 -0.000006 -0.000013 7.137210 -8.166500 -62.907700 11.754300 -0.000000 0.000003 -0.012982 -0.124721 -21.662600 -2.192510 6.469440 -0.000001 173.117000 5.356990 -172.877000 -39.081100 -0.002282 -0.040193 0.283061 -0.203124 54.025000 -40.985400 0.000008 0.000006 1.979910 -4.080300 -34.936100 -11.754300 -0.000006 -0.000006 -0.023623 -0.186590 -24.204000
